# File created by Blade
# Date/Time:  Tue Jan 27 19:05:11 2015
#---------------------------------------------------------
:version 1.10
:name HOM
:units
  mass 1.0
  length 1.000000
  angle deg
:documentation
     Acclaim Skeleton File
:root
   axis xyz
   order TX TY TZ RX RY RZ
   position 0.000000 0.000000 0.000000
   orientation 0 0 0
:bonedata
   begin
      id 1
      name Spine_dum
      direction 0.000000 1.000000 0.000000
      length 5.195262
      axis 0.0 0.0 0.0 xyz
   end
   begin
      id 2
      name LeftUpLeg_dum
      direction 1.000000 0.000000 0.000000
      length 3.351363
      axis 0.0 0.0 0.0 xyz
   end
   begin
      id 3
      name RightUpLeg_dum
      direction -1.000000 0.000000 0.000000
      length 3.351363
      axis 0.0 0.0 0.0 xyz
   end
   begin
      id 4
      name Spine
      direction 0.000000 1.000000 0.000000
      length 0.000000
      axis 0.0 0.0 0.0 xyz
      dof rx ry rz
   end
   begin
      id 5
      name Spine_dum1
      direction 0.000000 1.000000 0.000000
      length 15.653875
      axis 0.0 0.0 0.0 xyz
   end
   begin
      id 6
      name Spine_dum2
      direction 0.000000 1.000000 0.000000
      length 10.329768
      axis 0.0 0.0 0.0 xyz
   end
   begin
      id 7
      name Spine_dum3
      direction 0.000000 1.000000 0.000000
      length 10.329768
      axis 0.0 0.0 0.0 xyz
   end
   begin
      id 8
      name Head
      direction 0.000000 1.000000 0.000000
      length 4.527550
      axis 0.0 0.0 0.0 xyz
      dof rx ry rz
   end
   begin
      id 9
      name LeftShoulder
      direction 1.000000 0.000000 0.000000
      length 6.996006
      axis 0.0 0.0 -90.0 xyz
      dof rx ry rz
   end
   begin
      id 10
      name LeftArm
      direction 1.000000 0.000000 0.000000
      length 10.209302
      axis 0.0 0.0 -90.0 xyz
      dof rx ry rz
   end
   begin
      id 11
      name LeftForeArm
      direction 1.000000 0.000000 0.000000
      length 8.563163
      axis 0.0 0.0 -90.0 xyz
      dof ry rz rx
   end
   begin
      id 12
      name LeftHand
      direction 0.000000 0.000000 0.000000
      length 0.000000
      axis 0.0 0.0 -90.0 xyz
      dof rx ry rz
   end
   begin
      id 13
      name LeftHand_dum1
      direction 0.000000 0.000000 0.000000
      length 0.000000
      axis 0.0 0.0 -90.0 xyz
   end
   begin
      id 14
      name LeftHand_dum2
      direction 1.000000 0.000000 0.000000
      length 3.937000
      axis 0.0 0.0 -90.0 xyz
   end
   begin
      id 15
      name LeftHandThumb1
      direction 0.000000 0.000000 1.000000
      length 3.937000
      axis 0.0 0.0 -90.0 xyz
      dof rx rz ry
   end
   begin
      id 16
      name RightShoulder
      direction -1.000000 0.000000 0.000000
      length 6.996006
      axis 0.0 0.0 90.0 xyz
      dof rx ry rz
   end
   begin
      id 17
      name RightArm
      direction -1.000000 0.000000 0.000000
      length 10.209302
      axis 0.0 0.0 90.0 xyz
      dof rx ry rz
   end
   begin
      id 18
      name RightForeArm
      direction -1.000000 0.000000 0.000000
      length 8.563163
      axis 0.0 0.0 90.0 xyz
      dof ry rz rx
   end
   begin
      id 19
      name RightHand
      direction 0.000000 0.000000 0.000000
      length 0.000000
      axis 0.0 0.0 90.0 xyz
      dof rx ry rz
   end
   begin
      id 20
      name RightHand_dum1
      direction 0.000000 0.000000 0.000000
      length 0.000000
      axis 0.0 0.0 90.0 xyz
   end
   begin
      id 21
      name RightHand_dum2
      direction -1.000000 0.000000 0.000000
      length 3.937000
      axis 0.0 0.0 90.0 xyz
   end
   begin
      id 22
      name RightHandThumb1
      direction 0.000000 0.000000 1.000000
      length 3.937000
      axis 0.0 0.0 90.0 xyz
      dof rx rz ry
   end
   begin
      id 23
      name LeftUpLeg
      direction 0.000000 -1.000000 0.000000
      length 16.346831
      axis 0.0 0.0 0.0 xyz
      dof rx ry rz
   end
   begin
      id 24
      name LeftLeg
      direction 0.000000 -1.000000 0.000000
      length 13.959795
      axis 0.0 0.0 0.0 xyz
      dof rx ry rz
   end
   begin
      id 25
      name LeftFoot
      direction 0.000000 -0.258819 0.965926
      length 5.165550
      axis 15.0 0.0 0.0 xyz
      dof rx ry rz
   end
   begin
      id 26
      name LeftToeBase
      direction 0.000000 0.000000 1.000000
      length 2.952750
      axis 0.0 0.0 0.0 xyz
      dof rx ry rz
   end
   begin
      id 27
      name RightUpLeg
      direction 0.000000 -1.000000 0.000000
      length 16.346831
      axis 0.0 0.0 0.0 xyz
      dof rx ry rz
   end
   begin
      id 28
      name RightLeg
      direction 0.000000 -1.000000 0.000000
      length 13.959795
      axis 0.0 0.0 0.0 xyz
      dof rx ry rz
   end
   begin
      id 29
      name RightFoot
      direction 0.000000 -0.258819 0.965926
      length 5.165550
      axis 15.0 0.0 0.0 xyz
      dof rx ry rz
   end
   begin
      id 30
      name RightToeBase
      direction 0.000000 0.000000 1.000000
      length 2.952750
      axis 0.0 0.0 0.0 xyz
      dof rx ry rz
   end
:hierarchy
   begin
      root Spine_dum LeftUpLeg_dum RightUpLeg_dum
      Spine_dum Spine
      LeftUpLeg_dum LeftUpLeg
      RightUpLeg_dum RightUpLeg
      Spine Spine_dum1 Spine_dum2 Spine_dum3
      Spine_dum1 Head
      Spine_dum2 LeftShoulder
      Spine_dum3 RightShoulder
      LeftShoulder LeftArm
      LeftArm LeftForeArm
      LeftForeArm LeftHand
      LeftHand LeftHand_dum1 LeftHand_dum2
      LeftHand_dum1 LeftHandThumb1
      RightShoulder RightArm
      RightArm RightForeArm
      RightForeArm RightHand
      RightHand RightHand_dum1 RightHand_dum2
      RightHand_dum1 RightHandThumb1
      LeftUpLeg LeftLeg
      LeftLeg LeftFoot
      LeftFoot LeftToeBase
      RightUpLeg RightLeg
      RightLeg RightFoot
      RightFoot RightToeBase
   end

# File created by Blade
# Date/Time:  Tue Jan 27 19:05:02 2015
# Frame Rate: 120.000 fps
#------------------------------------------------------
:FULLY-SPECIFIED
:DEGREES
861
root -3.613147 31.714500 -4.486834 6.430617 40.094334 -0.137755
Spine -4.161567 -14.192780 -0.504184
Head 21.176315 -7.309013 0.168109
LeftShoulder -15.009158 10.980957 13.897766
LeftArm 24.533837 -28.275560 -71.787285
LeftForeArm -11.243503 -0.000000 81.337389
LeftHand -11.091463 -0.000000 19.819261
LeftHandThumb1 -26.253704 0.000000 33.147579
RightShoulder -15.183871 -6.529675 -12.474533
RightArm 5.902121 -31.069105 83.885581
RightForeArm -24.833188 -0.000000 23.059087
RightHand -14.583549 -0.000000 10.788902
RightHandThumb1 -24.326973 -0.000000 -32.862282
LeftUpLeg -10.899240 -33.422097 -2.236444
LeftLeg 19.959067 -0.000000 -0.000000
LeftFoot -20.110916 13.163809 -7.184445
LeftToeBase 9.630671 -0.000000 -0.000000
RightUpLeg -29.188710 23.286078 -6.906899
RightLeg 104.937732 -0.000000 -0.000000
RightFoot -16.080758 -15.384888 16.492701
RightToeBase 1.862930 -0.000000 -0.000000
862
root -3.619167 31.718216 -4.493301 6.274333 40.603585 -0.281907
Spine -4.073479 -14.298501 -0.362003
Head 21.201168 -7.728067 0.323514
LeftShoulder -14.828401 10.862910 13.946461
LeftArm 24.720369 -27.779945 -71.559557
LeftForeArm -11.248302 -0.000000 81.145529
LeftHand -10.991909 -0.000000 19.608686
LeftHandThumb1 -26.253704 0.000000 33.147579
RightShoulder -15.216978 -6.665090 -12.457058
RightArm 5.738572 -31.181508 83.981568
RightForeArm -24.925148 -0.000000 22.514281
RightHand -14.581703 0.000000 11.045552
RightHandThumb1 -24.326973 -0.000000 -32.862282
LeftUpLeg -10.984969 -33.508368 -2.083461
LeftLeg 20.164772 -0.000000 -0.000000
LeftFoot -20.065212 12.809746 -7.036144
LeftToeBase 9.670478 -0.000000 -0.000000
RightUpLeg -29.308135 22.965198 -6.698919
RightLeg 105.013201 -0.000000 -0.000000
RightFoot -15.924283 -14.613858 16.817423
RightToeBase 1.423154 -0.000000 -0.000000
863
root -3.619034 31.721039 -4.500907 6.160003 40.999161 -0.366861
Spine -3.995033 -14.334952 -0.282661
Head 21.207633 -8.106133 0.504297
LeftShoulder -14.700264 10.657385 14.021330
LeftArm 24.762060 -27.195157 -71.226033
LeftForeArm -11.369430 -0.000000 80.981513
LeftHand -10.880774 0.000000 19.590995
LeftHandThumb1 -26.253704 0.000000 33.147579
RightShoulder -15.283483 -6.812149 -12.435268
RightArm 5.652442 -31.408017 84.059215
RightForeArm -24.908455 -0.000000 21.941126
RightHand -14.166936 -0.000000 11.854218
RightHandThumb1 -24.326973 -0.000000 -32.862282
LeftUpLeg -10.999002 -33.650569 -2.004929
LeftLeg 20.243614 -0.000000 -0.000000
LeftFoot -20.049319 12.604853 -7.026609
LeftToeBase 9.727145 -0.000000 -0.000000
RightUpLeg -29.428872 22.690967 -6.534778
RightLeg 105.115286 -0.000000 -0.000000
RightFoot -15.624067 -13.886578 16.859248
RightToeBase 1.739852 -0.000000 -0.000000
864
root -3.618198 31.723396 -4.510547 6.080547 41.316520 -0.417445
Spine -3.943189 -14.374712 -0.224619
Head 21.232910 -8.414951 0.642959
LeftShoulder -14.601396 10.441559 14.073225
LeftArm 24.630950 -26.579934 -70.698129
LeftForeArm -11.563361 -0.000000 80.868711
LeftHand -10.752353 0.000000 19.730368
LeftHandThumb1 -26.253704 0.000000 33.147579
RightShoulder -15.308125 -6.912308 -12.407482
RightArm 5.572489 -31.640030 84.117203
RightForeArm -24.901844 -0.000000 21.382293
RightHand -14.262477 -0.000000 12.069112
RightHandThumb1 -24.326973 -0.000000 -32.862282
LeftUpLeg -10.989084 -33.758733 -1.958915
LeftLeg 20.243041 -0.000000 -0.000000
LeftFoot -20.044942 12.433839 -7.149607
LeftToeBase 9.819573 -0.000000 -0.000000
RightUpLeg -29.570651 22.475327 -6.409012
RightLeg 105.188750 -0.000000 -0.000000
RightFoot -15.530316 -13.232441 17.278053
RightToeBase 1.597254 -0.000000 -0.000000
865
root -3.615317 31.724232 -4.519351 6.037982 41.548626 -0.406653
Spine -3.885296 -14.389748 -0.238492
Head 21.236132 -8.650862 0.783051
LeftShoulder -14.602603 10.371471 14.050472
LeftArm 24.808209 -26.090553 -70.337950
LeftForeArm -11.770025 -0.000000 80.700753
LeftHand -10.719476 -0.000000 19.649698
LeftHandThumb1 -26.253704 0.000000 33.147579
RightShoulder -15.328814 -6.952065 -12.358852
RightArm 5.486643 -31.906061 84.165130
RightForeArm -24.734224 -0.000000 20.828939
RightHand -14.199959 -0.000000 12.431322
RightHandThumb1 -24.326973 -0.000000 -32.862282
LeftUpLeg -10.961808 -33.807386 -1.963293
LeftLeg 20.230094 -0.000000 -0.000000
LeftFoot -20.037334 12.222854 -7.255066
LeftToeBase 9.910470 -0.000000 -0.000000
RightUpLeg -29.719296 22.293332 -6.285204
RightLeg 105.270857 -0.000000 -0.000000
RightFoot -15.191252 -12.877842 17.361326
RightToeBase 1.078492 -0.000000 -0.000000
866
root -3.610649 31.724343 -4.528011 6.020816 41.693721 -0.361701
Spine -3.839608 -14.323007 -0.292542
Head 21.253830 -8.896532 0.905288
LeftShoulder -14.590515 10.398781 14.046933
LeftArm 25.030061 -25.676511 -70.074227
LeftForeArm -11.954232 -0.000000 80.546895
LeftHand -10.669367 -0.000000 19.475479
LeftHandThumb1 -26.253704 0.000000 33.147579
RightShoulder -15.370583 -6.964384 -12.311639
RightArm 5.374125 -32.069410 84.252143
RightForeArm -24.845246 -0.000000 20.285330
RightHand -14.345773 -0.000000 12.747697
RightHandThumb1 -24.326973 -0.000000 -32.862282
LeftUpLeg -10.900265 -33.829973 -1.998780
LeftLeg 20.157507 -0.000000 -0.000000
LeftFoot -20.004982 12.051204 -7.346024
LeftToeBase 9.922231 -0.000000 -0.000000
RightUpLeg -29.838116 22.129809 -6.225414
RightLeg 105.326406 -0.000000 -0.000000
RightFoot -15.275638 -12.376393 17.754061
RightToeBase 1.369611 -0.000000 -0.000000
867
root -3.604639 31.722380 -4.536632 6.010611 41.757480 -0.301044
Spine -3.812786 -14.261428 -0.350623
Head 21.307914 -9.039683 0.991037
LeftShoulder -14.616074 10.386422 14.002721
LeftArm 25.163488 -25.288465 -69.702079
LeftForeArm -12.217773 0.000000 80.392821
LeftHand -10.636728 -0.000000 19.440126
LeftHandThumb1 -26.253704 0.000000 33.147579
RightShoulder -15.346471 -6.975955 -12.286138
RightArm 5.325720 -32.323333 84.331671
RightForeArm -24.834883 -0.000000 19.712128
RightHand -14.452519 -0.000000 13.248153
RightHandThumb1 -24.326973 -0.000000 -32.862282
LeftUpLeg -10.845097 -33.740270 -2.064849
LeftLeg 20.128257 -0.000000 -0.000000
LeftFoot -20.013245 11.828089 -7.479357
LeftToeBase 10.113899 -0.000000 -0.000000
RightUpLeg -29.950441 21.974275 -6.152430
RightLeg 105.340504 -0.000000 -0.000000
RightFoot -15.059643 -12.200515 17.706698
RightToeBase 0.355640 -0.000000 -0.000000
868
root -3.597446 31.721536 -4.543774 6.018581 41.752061 -0.209591
Spine -3.786906 -14.171646 -0.456477
Head 21.362151 -9.177804 1.063558
LeftShoulder -14.662281 10.437861 13.975192
LeftArm 25.287325 -24.906456 -69.338998
LeftForeArm -12.563014 -0.000000 80.280542
LeftHand -10.448257 0.000000 19.155861
LeftHandThumb1 -26.253704 0.000000 33.147579
RightShoulder -15.329252 -6.993511 -12.217925
RightArm 5.280850 -32.554693 84.412695
RightForeArm -25.026925 -0.000000 19.164812
RightHand -14.354853 -0.000000 13.380982
RightHandThumb1 -24.326973 -0.000000 -32.862282
LeftUpLeg -10.772512 -33.558364 -2.160206
LeftLeg 20.083255 -0.000000 -0.000000
LeftFoot -20.027989 11.537934 -7.645898
LeftToeBase 10.283115 -0.000000 -0.000000
RightUpLeg -30.060946 21.863292 -6.117430
RightLeg 105.357315 -0.000000 -0.000000
RightFoot -15.471499 -11.692864 18.713616
RightToeBase 2.203329 -0.000000 -0.000000
